<svg width="22" height="20" viewBox="0 0 22 20" fill="none" xmlns="http://www.w3.org/2000/svg">
<path d="M15.59 4.59L13.18 3.5L15.59 2.41L16.68 0L17.77 2.41L20.18 3.5L17.77 4.59L16.68 7L15.59 4.59ZM19.46 10.72L18.68 9L17.9 10.72L16.18 11.5L17.9 12.28L18.68 14L19.46 12.28L21.18 11.5L19.46 10.72ZM14.42 12.37L16.36 13.84L13.86 18.17L11.62 17.23C11.42 17.36 11.2 17.49 10.98 17.6L10.68 20H5.68L5.38 17.59C5.16 17.48 4.95 17.36 4.74 17.22L2.5 18.16L0 13.83L1.94 12.36C1.93 12.25 1.93 12.12 1.93 12C1.93 11.88 1.93 11.75 1.94 11.63L0 10.16L2.5 5.83L4.74 6.77C4.94 6.64 5.16 6.51 5.38 6.4L5.68 4H10.68L10.98 6.41C11.2 6.52 11.41 6.64 11.62 6.78L13.86 5.84L16.36 10.17L14.42 11.64C14.43 11.76 14.43 11.88 14.43 12.01C14.43 12.14 14.43 12.25 14.42 12.37ZM11.18 12C11.18 10.34 9.84 9 8.18 9C6.52 9 5.18 10.34 5.18 12C5.18 13.66 6.52 15 8.18 15C9.84 15 11.18 13.66 11.18 12Z" fill="#6B90E0"/>
</svg>
